<mxfile host="app.diagrams.net" agent="Mozilla/5.0 (Windows NT 10.0; Win64; x64) AppleWebKit/537.36 (KHTML, like Gecko) Chrome/131.0.0.0 Safari/537.36" version="26.0.6">
  <diagram name="Page-1" id="Q7fAwdDV4ESacsW7LS1n">
    <mxGraphModel dx="1434" dy="738" grid="1" gridSize="10" guides="1" tooltips="1" connect="1" arrows="1" fold="1" page="1" pageScale="1" pageWidth="850" pageHeight="1100" math="0" shadow="0">
      <root>
        <mxCell id="0" />
        <mxCell id="1" parent="0" />
        <mxCell id="YcNsE4wuTBjSfJi-bFuw-3" style="edgeStyle=orthogonalEdgeStyle;rounded=0;orthogonalLoop=1;jettySize=auto;html=1;exitX=0.5;exitY=1;exitDx=0;exitDy=0;entryX=0.5;entryY=0;entryDx=0;entryDy=0;strokeColor=#BCD245;strokeWidth=2;" parent="1" source="YcNsE4wuTBjSfJi-bFuw-15" target="YcNsE4wuTBjSfJi-bFuw-2" edge="1">
          <mxGeometry relative="1" as="geometry">
            <mxPoint x="380" y="160" as="sourcePoint" />
          </mxGeometry>
        </mxCell>
        <mxCell id="YcNsE4wuTBjSfJi-bFuw-5" style="edgeStyle=orthogonalEdgeStyle;rounded=0;orthogonalLoop=1;jettySize=auto;html=1;exitX=0.5;exitY=1;exitDx=0;exitDy=0;entryX=0.5;entryY=0;entryDx=0;entryDy=0;strokeColor=#BCD245;strokeWidth=2;" parent="1" source="YcNsE4wuTBjSfJi-bFuw-2" target="YcNsE4wuTBjSfJi-bFuw-4" edge="1">
          <mxGeometry relative="1" as="geometry" />
        </mxCell>
        <mxCell id="YcNsE4wuTBjSfJi-bFuw-2" value="&lt;font style=&quot;font-size: 16px;&quot;&gt;PayU procesa la transacción y solicita autenticación (por ejemplo, un desafío 3DS).&lt;/font&gt;" style="rounded=1;whiteSpace=wrap;html=1;strokeColor=#BCD245;strokeWidth=2;" parent="1" vertex="1">
          <mxGeometry x="280" y="180" width="200" height="100" as="geometry" />
        </mxCell>
        <mxCell id="YcNsE4wuTBjSfJi-bFuw-4" value="&lt;font style=&quot;font-size: 16px;&quot;&gt;La integración verifica si el comercio ha definido una&lt;font style=&quot;&quot; face=&quot;Arial, sans-serif&quot;&gt;&amp;nbsp;&lt;/font&gt;&lt;font style=&quot;&quot; face=&quot;Lucida Console&quot;&gt;RESPONSE_URL&lt;/font&gt;&lt;font style=&quot;&quot; face=&quot;Arial, sans-serif&quot;&gt;.&lt;/font&gt;&lt;/font&gt;" style="rounded=1;whiteSpace=wrap;html=1;strokeColor=#BCD245;strokeWidth=2;" parent="1" vertex="1">
          <mxGeometry x="270" y="320" width="220" height="95" as="geometry" />
        </mxCell>
        <mxCell id="YcNsE4wuTBjSfJi-bFuw-10" style="edgeStyle=orthogonalEdgeStyle;rounded=0;orthogonalLoop=1;jettySize=auto;html=1;entryX=0.5;entryY=1;entryDx=0;entryDy=0;strokeColor=#BCD245;endArrow=none;endFill=0;strokeWidth=2;exitX=0.5;exitY=0;exitDx=0;exitDy=0;startArrow=classic;startFill=1;" parent="1" source="YcNsE4wuTBjSfJi-bFuw-18" target="YcNsE4wuTBjSfJi-bFuw-4" edge="1">
          <mxGeometry relative="1" as="geometry">
            <mxPoint x="260" y="497" as="sourcePoint" />
            <Array as="points">
              <mxPoint x="110" y="460" />
              <mxPoint x="380" y="460" />
            </Array>
          </mxGeometry>
        </mxCell>
        <mxCell id="YcNsE4wuTBjSfJi-bFuw-15" value="&lt;div&gt;&lt;font style=&quot;font-size: 16px;&quot; color=&quot;#ffffff&quot;&gt;&lt;br&gt;&lt;/font&gt;&lt;/div&gt;&lt;font style=&quot;font-size: 16px;&quot; color=&quot;#ffffff&quot;&gt;El usuario inicia un pago en el sitio web del comercio.&lt;/font&gt;" style="ellipse;whiteSpace=wrap;html=1;aspect=fixed;strokeColor=#BCD245;fillColor=#BCD245;" parent="1" vertex="1">
          <mxGeometry x="320" y="20" width="127.5" height="127.5" as="geometry" />
        </mxCell>
        <mxCell id="YcNsE4wuTBjSfJi-bFuw-18" value="&lt;div&gt;&lt;font style=&quot;font-size: 16px;&quot; color=&quot;#ffffff&quot;&gt;&lt;font style=&quot;&quot; face=&quot;Lucida Console&quot;&gt;RESPONSE_URL&lt;/font&gt;&lt;font style=&quot;&quot; face=&quot;Arial, sans-serif&quot;&gt;&amp;nbsp;&lt;/font&gt;&lt;/font&gt;&lt;span style=&quot;background-color: transparent; color: light-dark(rgb(255, 255, 255), rgb(18, 18, 18)); font-family: Arial, sans-serif; font-size: 16px;&quot;&gt;está definida:&lt;/span&gt;&lt;/div&gt;&lt;div&gt;&lt;div&gt;&lt;font style=&quot;font-size: 16px;&quot; color=&quot;#ffffff&quot;&gt;&lt;br style=&quot;font-family: Arial, sans-serif;&quot;&gt;El usuario es redirigido de vuelta al sitio web del comercio después de la autenticación&lt;/font&gt;&lt;span style=&quot;font-family: Arial, sans-serif; color: light-dark(rgb(255, 255, 255), rgb(18, 18, 18)); font-size: 16px; background-color: transparent;&quot;&gt;.&lt;/span&gt;&lt;/div&gt;&lt;/div&gt;" style="rounded=1;whiteSpace=wrap;html=1;strokeColor=#BCD245;strokeWidth=2;fillColor=#BCD245;" parent="1" vertex="1">
          <mxGeometry x="10" y="500" width="200" height="150" as="geometry" />
        </mxCell>
        <mxCell id="iZpOtUYKphx9t9l1RsEH-4" style="edgeStyle=orthogonalEdgeStyle;rounded=0;orthogonalLoop=1;jettySize=auto;html=1;strokeColor=#BCD245;endArrow=none;endFill=0;strokeWidth=2;exitX=0.5;exitY=0;exitDx=0;exitDy=0;startArrow=classic;startFill=1;" parent="1" source="iZpOtUYKphx9t9l1RsEH-5" edge="1">
          <mxGeometry relative="1" as="geometry">
            <mxPoint x="500" y="497" as="sourcePoint" />
            <mxPoint x="380" y="420" as="targetPoint" />
            <Array as="points">
              <mxPoint x="650" y="460" />
              <mxPoint x="380" y="460" />
            </Array>
          </mxGeometry>
        </mxCell>
        <mxCell id="iZpOtUYKphx9t9l1RsEH-5" value="&lt;div&gt;&lt;font style=&quot;font-size: 16px;&quot; color=&quot;#ffffff&quot;&gt;&lt;font style=&quot;&quot; face=&quot;Lucida Console&quot;&gt;RESPONSE_URL&lt;/font&gt;&lt;font style=&quot;&quot; face=&quot;Arial, sans-serif&quot;&gt;&amp;nbsp;no está definida:&lt;/font&gt;&lt;/font&gt;&lt;div&gt;&lt;font style=&quot;font-size: 16px;&quot; color=&quot;#ffffff&quot;&gt;&lt;br style=&quot;font-family: Arial, sans-serif;&quot;&gt;El usuario es redirigido a la página predeterminada de estado de la transacción de PayU&lt;span style=&quot;font-family: Arial, sans-serif;&quot;&gt;.&lt;/span&gt;&lt;/font&gt;&lt;/div&gt;&lt;/div&gt;" style="rounded=1;whiteSpace=wrap;html=1;strokeColor=#BCD245;strokeWidth=2;fillColor=#BCD245;" parent="1" vertex="1">
          <mxGeometry x="550" y="500" width="200" height="150" as="geometry" />
        </mxCell>
        <mxCell id="iZpOtUYKphx9t9l1RsEH-7" value="&lt;font style=&quot;font-size: 16px;&quot;&gt;&amp;nbsp;El comercio muestra el resultado del pago al usuario en su sitio web.&lt;/font&gt;" style="rounded=1;whiteSpace=wrap;html=1;strokeColor=#BCD245;strokeWidth=2;" parent="1" vertex="1">
          <mxGeometry x="150" y="704" width="210" height="95" as="geometry" />
        </mxCell>
        <mxCell id="iZpOtUYKphx9t9l1RsEH-10" style="edgeStyle=orthogonalEdgeStyle;rounded=0;orthogonalLoop=1;jettySize=auto;html=1;entryX=0.5;entryY=0;entryDx=0;entryDy=0;strokeColor=#BCD245;strokeWidth=2;exitX=0.5;exitY=1;exitDx=0;exitDy=0;" parent="1" source="YcNsE4wuTBjSfJi-bFuw-18" target="iZpOtUYKphx9t9l1RsEH-7" edge="1">
          <mxGeometry relative="1" as="geometry">
            <mxPoint x="230" y="640" as="sourcePoint" />
            <mxPoint x="229" y="688" as="targetPoint" />
            <Array as="points">
              <mxPoint x="110" y="680" />
              <mxPoint x="255" y="680" />
            </Array>
          </mxGeometry>
        </mxCell>
        <mxCell id="iZpOtUYKphx9t9l1RsEH-11" value="&lt;font style=&quot;font-size: 16px;&quot;&gt;El usuario visualiza el resultado de la transacción en la página de estado de PayU.&lt;/font&gt;" style="rounded=1;whiteSpace=wrap;html=1;strokeColor=#BCD245;strokeWidth=2;" parent="1" vertex="1">
          <mxGeometry x="400" y="704" width="210" height="95" as="geometry" />
        </mxCell>
        <mxCell id="iZpOtUYKphx9t9l1RsEH-12" style="edgeStyle=orthogonalEdgeStyle;rounded=0;orthogonalLoop=1;jettySize=auto;html=1;entryX=0.5;entryY=0;entryDx=0;entryDy=0;strokeColor=#BCD245;strokeWidth=2;exitX=0.5;exitY=1;exitDx=0;exitDy=0;" parent="1" source="iZpOtUYKphx9t9l1RsEH-5" target="iZpOtUYKphx9t9l1RsEH-11" edge="1">
          <mxGeometry relative="1" as="geometry">
            <mxPoint x="730" y="640" as="sourcePoint" />
            <mxPoint x="729" y="688" as="targetPoint" />
            <Array as="points">
              <mxPoint x="650" y="680" />
              <mxPoint x="505" y="680" />
            </Array>
          </mxGeometry>
        </mxCell>
        <mxCell id="iZpOtUYKphx9t9l1RsEH-13" value="&lt;font style=&quot;font-size: 16px;&quot; color=&quot;#ffffff&quot;&gt;&lt;font style=&quot;&quot; face=&quot;Lucida Console&quot;&gt;notifyUrl&lt;/font&gt;&lt;span style=&quot;font-family: Arial, sans-serif;&quot;&gt;:&lt;/span&gt;&lt;strong style=&quot;font-family: Arial, sans-serif;&quot;&gt; &lt;/strong&gt;&lt;/font&gt;&lt;font style=&quot;font-size: 16px;&quot; color=&quot;#ffffff&quot;&gt;Simultáneamente con la redirección, la integración envía un webhook al servidor del comercio con el estado final de la transacción (aprobada o rechazada).&lt;/font&gt;" style="rounded=1;whiteSpace=wrap;html=1;strokeColor=#666666;strokeWidth=2;fillColor=#666666;" parent="1" vertex="1">
          <mxGeometry x="265" y="500" width="230" height="150" as="geometry" />
        </mxCell>
        <mxCell id="iZpOtUYKphx9t9l1RsEH-16" style="edgeStyle=orthogonalEdgeStyle;rounded=0;orthogonalLoop=1;jettySize=auto;html=1;entryX=0;entryY=0.5;entryDx=0;entryDy=0;strokeColor=#BCD245;endArrow=none;endFill=0;dashed=1;strokeWidth=2;exitX=1;exitY=0.5;exitDx=0;exitDy=0;startArrow=none;startFill=0;" parent="1" source="YcNsE4wuTBjSfJi-bFuw-18" target="iZpOtUYKphx9t9l1RsEH-13" edge="1">
          <mxGeometry relative="1" as="geometry">
            <mxPoint x="240" y="728" as="sourcePoint" />
            <mxPoint x="540" y="641" as="targetPoint" />
            <Array as="points">
              <mxPoint x="250" y="574" />
              <mxPoint x="250" y="574" />
            </Array>
          </mxGeometry>
        </mxCell>
        <mxCell id="iZpOtUYKphx9t9l1RsEH-17" style="edgeStyle=orthogonalEdgeStyle;rounded=0;orthogonalLoop=1;jettySize=auto;html=1;strokeColor=#BCD245;endArrow=none;endFill=0;dashed=1;strokeWidth=2;startArrow=none;startFill=0;exitX=1;exitY=0.5;exitDx=0;exitDy=0;entryX=0;entryY=0.5;entryDx=0;entryDy=0;" parent="1" source="iZpOtUYKphx9t9l1RsEH-13" target="iZpOtUYKphx9t9l1RsEH-5" edge="1">
          <mxGeometry relative="1" as="geometry">
            <mxPoint x="505" y="670" as="sourcePoint" />
            <mxPoint x="585" y="672" as="targetPoint" />
            <Array as="points">
              <mxPoint x="510" y="574" />
              <mxPoint x="555" y="574" />
            </Array>
          </mxGeometry>
        </mxCell>
      </root>
    </mxGraphModel>
  </diagram>
</mxfile>
